<svg width="432" height="572" viewBox="0 0 432 572" fill="none" xmlns="http://www.w3.org/2000/svg">
<path d="M0.693574 572V0.244701H226.269C269.634 0.244701 306.579 8.52697 337.102 25.0915C367.626 41.4699 390.891 64.2694 406.897 93.4899C423.089 122.524 431.185 156.026 431.185 193.994C431.185 231.962 422.996 265.463 406.618 294.498C390.239 323.532 366.509 346.145 335.427 362.338C304.532 378.53 267.122 386.626 223.198 386.626H79.4216V289.752H203.656C226.92 289.752 246.091 285.75 261.166 277.747C276.428 269.558 287.781 258.298 295.226 243.967C302.857 229.449 306.672 212.792 306.672 193.994C306.672 175.01 302.857 158.445 295.226 144.3C287.781 129.969 276.428 118.895 261.166 111.078C245.904 103.075 226.548 99.0735 203.097 99.0735H121.577V572H0.693574Z" fill="#34A8E0"/>
</svg>
