
<svg xmlns="http://www.w3.org/2000/svg" width="369" height="369" viewBox="0 0 369 369">
<g>
<path d="M 185.00,53.00 L 133.00,53.00 L 133.00,105.00 L 185.00,105.00 L 185.02,183.75 L 185.02,195.42 L 185.03,202.64 L 185.04,205.97 L 185.05,212.46 L 185.06,215.45 L 185.07,221.25 L 185.08,223.92 L 185.11,229.08 L 185.12,231.44 L 185.15,236.01 L 185.17,238.08 L 185.21,242.09 L 185.23,243.90 L 185.28,247.40 L 185.31,248.97 L 185.37,251.98 L 185.40,253.33 L 185.46,255.91 L 185.50,257.05 L 185.58,259.24 L 185.62,260.21 L 185.71,262.04 L 185.76,262.84 L 185.86,264.37 L 185.92,265.03 L 186.03,266.29 L 186.09,266.83 L 186.35,268.77 L 186.50,269.50 L 188.70,277.20 L 190.68,282.10 L 191.91,284.42 L 194.53,288.96 L 196.06,291.07 L 199.27,295.19 L 201.07,297.07 L 204.81,300.72 L 206.86,302.35 L 211.08,305.47 L 213.35,306.81 L 218.00,309.34 L 220.46,310.37 L 225.48,312.27 L 228.12,312.96 L 229.81,313.38 L 230.72,313.56 L 232.62,313.89 L 233.80,314.03 L 235.04,314.15 L 235.74,314.21 L 237.22,314.32 L 238.06,314.37 L 239.84,314.46 L 240.86,314.50 L 242.99,314.58 L 244.21,314.61 L 246.76,314.67 L 248.22,314.70 L 251.24,314.75 L 252.95,314.77 L 256.51,314.81 L 258.51,314.83 L 262.67,314.86 L 264.99,314.87 L 269.79,314.89 L 272.46,314.90 L 277.97,314.91 L 281.02,314.92 L 287.30,314.93 L 290.75,314.93 L 297.86,314.94 L 301.75,314.94 L 367.50,315.00 L 367.50,330.50 L 363.65,338.39 L 362.33,341.08 L 358.99,346.14 L 357.22,348.60 L 353.08,353.08 L 350.92,355.24 L 346.14,358.99 L 338.39,363.65 L 330.50,367.50 L 42.50,367.91 L 36.50,365.65 L 34.43,364.87 L 30.71,363.14 L 28.91,362.24 L 25.56,360.15 L 23.91,359.05 L 20.72,356.46 L 15.88,351.86 L 14.24,350.17 L 11.19,346.12 L 9.71,344.02 L 7.11,339.44 L 5.89,337.11 L 3.96,332.38 L 2.02,325.50 L 1.97,325.23 L 1.88,324.26 L 1.83,323.70 L 1.75,322.12 L 1.71,321.26 L 1.63,319.06 L 1.59,317.89 L 1.53,315.05 L 1.49,313.55 L 1.43,310.05 L 1.41,308.21 L 1.35,304.03 L 1.33,301.85 L 1.29,296.96 L 1.27,294.42 L 1.23,288.81 L 1.22,285.91 L 1.19,279.55 L 1.18,276.27 L 1.16,269.14 L 1.15,265.48 L 1.14,257.57 L 1.13,253.51 L 1.13,244.79 L 1.13,240.32 L 1.13,230.77 L 1.13,225.89 L 1.14,215.49 L 1.15,210.18 L 1.17,198.91 L 1.20,181.00 L 1.50,42.50 L 3.75,36.54 L 4.46,34.64 L 6.18,31.01 L 7.08,29.22 L 9.16,25.82 L 10.24,24.15 L 12.65,21.01 L 13.90,19.47 L 16.63,16.60 L 18.03,15.20 L 21.05,12.63 L 22.59,11.38 L 25.88,9.14 L 27.56,8.05 L 31.09,6.15 L 36.65,3.71 L 42.50,1.50 L 181.50,1.20 L 185.00,1.19 M 367.50,263.08 L 315.25,262.77 L 306.74,262.72 L 301.55,262.68 L 299.18,262.67 L 294.58,262.63 L 292.49,262.61 L 288.45,262.57 L 286.63,262.55 L 283.10,262.51 L 281.52,262.49 L 278.47,262.44 L 277.11,262.41 L 274.49,262.35 L 273.33,262.32 L 271.11,262.26 L 270.13,262.22 L 268.26,262.15 L 267.44,262.11 L 265.88,262.02 L 265.20,261.97 L 262.75,261.77 L 261.83,261.64 L 260.18,261.37 L 259.53,261.21 L 258.34,260.86 L 257.81,260.65 L 253.21,258.27 L 250.10,256.09 L 248.62,254.80 L 245.73,252.09 L 244.48,250.63 L 242.12,247.65 L 241.23,246.15 L 238.50,241.50 L 238.22,173.25 L 237.95,105.00 L 367.50,105.00 M 250.20,1.13 L 258.54,1.14 L 262.62,1.14 L 270.16,1.16 L 273.83,1.16 L 280.59,1.19 L 283.87,1.20 L 289.86,1.23 L 292.76,1.25 L 298.01,1.29 L 300.54,1.31 L 305.08,1.35 L 307.25,1.38 L 311.09,1.43 L 312.92,1.46 L 316.08,1.53 L 317.57,1.56 L 320.08,1.63 L 321.25,1.67 L 323.13,1.75 L 323.99,1.79 L 325.26,1.88 L 326.50,2.03 L 328.45,2.39 L 332.26,3.49 L 334.15,4.09 L 337.82,5.65 L 339.64,6.47 L 343.12,8.45 L 344.84,9.49 L 348.10,11.86 L 349.70,13.09 L 352.69,15.81 L 354.15,17.22 L 356.83,20.27 L 358.13,21.83 L 360.46,25.18 L 363.51,30.50 L 367.50,38.50 L 367.50,53.00 L 238.00,53.00 L 238.00,1.13 L 245.71,1.13 Z" fill="rgba(117,0,32,1)"/>
<path d="M 228.12,312.96 L 225.48,312.27 L 220.46,310.37 L 218.00,309.34 L 213.35,306.81 L 211.08,305.47 L 206.86,302.35 L 204.81,300.72 L 201.07,297.07 L 199.27,295.19 L 196.06,291.07 L 194.53,288.96 L 191.91,284.42 L 190.68,282.10 L 188.70,277.20 L 186.50,269.50 L 186.35,268.77 L 186.09,266.83 L 186.03,266.29 L 185.92,265.03 L 185.86,264.37 L 185.76,262.84 L 185.71,262.04 L 185.62,260.21 L 185.58,259.24 L 185.50,257.05 L 185.46,255.91 L 185.40,253.33 L 185.37,251.98 L 185.31,248.97 L 185.28,247.40 L 185.23,243.90 L 185.21,242.09 L 185.17,238.08 L 185.15,236.01 L 185.12,231.44 L 185.11,229.08 L 185.08,223.92 L 185.07,221.25 L 185.06,215.45 L 185.05,212.46 L 185.04,205.97 L 185.03,202.64 L 185.02,195.42 L 185.02,183.75 L 185.00,105.00 L 159.00,105.00 L 133.00,105.00 L 133.00,79.00 L 133.00,53.00 L 159.00,53.00 L 185.00,53.00 L 185.00,27.00 L 185.00,1.00 L 211.50,1.00 L 238.00,1.00 L 238.00,27.00 L 238.00,53.00 L 303.00,53.00 L 368.00,53.00 L 368.00,79.00 L 368.00,105.00 L 302.97,105.00 L 237.95,105.00 L 238.22,173.25 L 238.50,241.50 L 241.23,246.15 L 242.12,247.65 L 244.48,250.63 L 245.73,252.09 L 248.62,254.80 L 250.10,256.09 L 253.21,258.27 L 257.81,260.65 L 258.34,260.86 L 259.53,261.21 L 260.18,261.37 L 261.83,261.64 L 262.75,261.77 L 265.20,261.97 L 265.88,262.02 L 267.44,262.11 L 268.26,262.15 L 270.13,262.22 L 271.11,262.26 L 273.33,262.32 L 274.49,262.35 L 277.11,262.41 L 278.47,262.44 L 281.52,262.49 L 283.10,262.51 L 286.63,262.55 L 288.45,262.57 L 292.49,262.61 L 294.58,262.63 L 299.18,262.67 L 301.55,262.68 L 306.74,262.72 L 315.25,262.77 L 368.00,263.08 L 368.00,289.04 L 368.00,315.00 L 301.75,314.94 L 297.86,314.94 L 290.75,314.93 L 287.30,314.93 L 281.02,314.92 L 277.97,314.91 L 272.46,314.90 L 269.79,314.89 L 264.99,314.87 L 262.67,314.86 L 258.51,314.83 L 256.51,314.81 L 252.95,314.77 L 251.24,314.75 L 248.22,314.70 L 246.76,314.67 L 244.21,314.61 L 242.99,314.58 L 240.86,314.50 L 239.84,314.46 L 238.06,314.37 L 237.22,314.32 L 235.74,314.21 L 235.04,314.15 L 233.80,314.03 L 232.62,313.89 L 230.72,313.56 L 229.81,313.38 Z" fill="rgba(254,254,254,1)"/>
</g>
</svg>