
<svg xmlns="http://www.w3.org/2000/svg" width="512" height="512" viewBox="0 0 512 512">
<g>
<path d="M 412.77,480.23 L 412.05,480.77 L 414.46,478.88 M 87.73,470.75 L 86.17,469.48 L 82.95,466.53 M 427.94,467.55 L 425.67,469.53 L 427.99,467.51 M 456.37,437.69 L 454.68,439.87 L 450.86,444.39 L 448.89,446.68 L 444.58,451.33 L 442.38,453.67 L 437.71,458.35 L 435.34,460.68 L 430.42,465.27 L 430.01,465.65 L 432.08,463.70 L 438.80,457.21 L 441.98,453.90 L 448.22,447.24 L 451.09,443.92 L 456.63,437.30 L 457.18,436.59 M 72.21,456.39 L 76.96,461.03 L 72.47,456.77 L 70.50,454.67 M 60.65,444.03 L 63.48,447.17 L 65.31,449.15 L 63.98,447.73 L 59.82,443.15 L 56.61,439.19 M 47.55,427.58 L 51.83,433.27 L 48.31,428.75 L 46.42,426.04 M 208.78,20.78 L 214.05,25.29 L 224.78,23.89 L 225.64,23.78 L 227.62,23.58 L 228.65,23.48 L 230.93,23.31 L 233.28,23.14 L 238.68,22.89 L 241.47,22.77 L 247.48,22.63 L 250.53,22.58 L 256.76,22.55 L 259.88,22.55 L 265.97,22.63 L 268.96,22.68 L 274.53,22.88 L 277.22,22.99 L 281.90,23.29 L 282.99,23.38 L 284.95,23.56 L 287.50,23.88 L 292.69,24.64 L 302.84,26.52 L 307.87,27.52 L 317.72,29.86 L 322.60,31.09 L 332.13,33.90 L 336.85,35.36 L 346.06,38.63 L 350.62,40.32 L 359.50,44.05 L 363.90,45.96 L 372.45,50.15 L 376.69,52.29 L 384.90,56.93 L 396.83,64.39 L 400.83,67.06 L 408.63,72.76 L 412.49,75.66 L 419.97,81.79 L 423.67,84.91 L 430.81,91.43 L 434.34,94.74 L 441.10,101.64 L 444.43,105.13 L 450.79,112.36 L 453.92,116.02 L 459.85,123.56 L 462.76,127.37 L 468.22,135.18 L 475.87,147.19 L 478.06,150.85 L 482.13,158.32 L 484.12,162.08 L 487.81,169.75 L 489.60,173.60 L 492.89,181.44 L 494.48,185.37 L 497.37,193.36 L 498.76,197.37 L 501.25,205.48 L 502.44,209.55 L 504.53,217.78 L 505.52,221.91 L 507.19,230.23 L 507.98,234.40 L 509.24,242.80 L 509.82,247.01 L 510.68,255.46 L 511.05,259.69 L 511.49,268.18 L 511.66,272.43 L 511.68,280.94 L 511.64,285.19 L 511.24,293.70 L 510.99,297.95 L 510.17,306.44 L 509.70,310.68 L 508.46,319.13 L 507.78,323.35 L 506.11,331.74 L 503.11,344.24 L 502.03,348.30 L 499.49,356.45 L 498.16,360.52 L 495.15,368.67 L 493.59,372.74 L 490.14,380.82 L 488.36,384.85 L 484.49,392.83 L 482.50,396.79 L 478.25,404.60 L 476.07,408.47 L 471.45,416.05 L 469.10,419.81 L 464.15,427.11 L 463.24,428.34 L 464.70,426.21 L 465.67,424.70 L 467.52,421.72 L 468.34,420.28 L 469.89,417.45 L 470.54,416.10 L 473.96,408.33 L 476.03,402.90 L 476.96,400.10 L 478.74,394.43 L 479.52,391.53 L 481.00,385.71 L 481.61,382.77 L 482.76,376.88 L 483.20,373.95 L 484.00,368.10 L 484.27,365.21 L 484.70,359.48 L 484.77,356.69 L 484.82,351.16 L 484.70,348.52 L 484.21,341.77 L 483.71,337.54 L 483.37,335.53 L 482.63,331.57 L 482.15,329.66 L 481.12,325.88 L 480.49,324.02 L 479.15,320.33 L 478.35,318.48 L 476.66,314.77 L 475.67,312.88 L 473.60,309.07 L 472.41,307.09 L 469.93,303.08 L 468.53,300.97 L 463.29,293.68 L 459.67,289.23 L 457.80,287.21 L 454.01,283.30 L 452.04,281.54 L 448.06,278.15 L 445.99,276.65 L 441.79,273.77 L 439.61,272.51 L 435.17,270.13 L 432.86,269.12 L 428.18,267.21 L 425.73,266.44 L 420.77,265.00 L 418.19,264.45 L 414.29,263.82 L 411.28,263.49 L 409.62,263.38 L 406.21,263.18 L 404.41,263.12 L 400.77,263.05 L 398.92,263.05 L 391.48,263.21 L 388.05,263.47 L 384.69,263.77 L 383.17,263.96 L 380.23,264.37 L 378.98,264.62 L 375.79,265.20 L 373.87,265.48 L 373.08,265.56 L 371.61,265.68 L 371.12,265.68 L 370.31,265.62 L 370.21,265.52 L 370.13,264.71 L 370.54,263.95 L 370.93,263.50 L 371.83,262.55 L 372.42,262.03 L 373.70,260.97 L 374.44,260.43 L 377.62,258.27 L 379.33,257.35 L 381.03,256.48 L 381.86,256.13 L 383.47,255.49 L 384.21,255.28 L 386.45,254.57 L 387.73,254.07 L 388.23,253.82 L 389.12,253.34 L 389.37,253.13 L 389.75,252.74 L 389.70,252.59 L 389.12,251.95 L 388.38,251.56 L 387.84,251.39 L 386.62,251.06 L 385.83,250.92 L 384.13,250.64 L 383.09,250.52 L 380.89,250.30 L 379.60,250.21 L 376.90,250.04 L 375.35,249.97 L 372.13,249.85 L 370.32,249.81 L 366.57,249.74 L 364.50,249.73 L 356.60,249.77 L 351.69,249.91 L 349.37,250.04 L 344.80,250.35 L 342.60,250.57 L 338.26,251.07 L 336.12,251.40 L 331.85,252.10 L 329.71,252.54 L 325.40,253.47 L 323.18,254.03 L 318.70,255.22 L 316.35,255.91 L 311.56,257.36 L 309.00,258.19 L 300.37,261.28 L 294.69,263.59 L 291.94,264.84 L 286.51,267.40 L 283.94,268.75 L 278.92,271.49 L 276.62,272.91 L 273.46,274.77 L 271.95,275.58 L 271.46,275.77 L 270.65,276.02 L 270.49,275.94 L 270.33,275.65 L 270.46,275.32 L 270.91,273.95 L 271.34,272.50 L 271.59,271.58 L 272.13,269.62 L 272.41,268.53 L 273.00,266.29 L 273.28,265.15 L 273.93,262.49 L 274.27,260.92 L 274.41,260.20 L 274.83,257.42 L 274.89,255.92 L 274.94,254.37 L 274.92,253.50 L 274.88,251.68 L 274.82,250.62 L 274.69,248.39 L 274.60,247.07 L 274.39,244.29 L 274.26,242.65 L 273.76,237.00 L 273.40,233.66 L 273.19,232.17 L 272.77,229.31 L 272.53,228.03 L 272.02,225.56 L 271.73,224.44 L 270.44,220.24 L 269.58,218.39 L 267.71,214.79 L 266.48,212.98 L 265.13,210.93 L 264.34,209.71 L 264.02,209.20 L 263.45,208.27 L 263.27,207.96 L 263.00,207.45 L 263.00,207.40 L 263.26,207.32 L 263.68,207.27 L 264.01,207.24 L 265.59,207.15 L 266.75,207.12 L 269.28,207.05 L 270.80,207.03 L 274.00,207.00 L 275.75,207.00 L 283.72,206.80 L 288.97,206.47 L 291.58,206.20 L 296.79,205.60 L 299.38,205.20 L 304.55,204.32 L 307.13,203.78 L 312.29,202.63 L 314.88,201.95 L 320.05,200.52 L 322.65,199.70 L 327.85,197.98 L 330.47,197.01 L 335.73,195.00 L 338.38,193.89 L 343.57,191.57 L 347.09,189.87 L 348.74,189.01 L 351.95,187.31 L 353.30,186.53 L 354.59,185.76 L 355.15,185.41 L 356.21,184.73 L 356.63,184.43 L 361.09,180.97 L 363.67,178.68 L 364.70,177.62 L 366.55,175.58 L 367.12,174.74 L 367.62,173.93 L 367.77,173.58 L 368.00,172.93 L 368.00,172.67 L 367.75,172.32 L 367.37,171.97 L 367.07,171.75 L 366.40,171.28 L 365.98,171.00 L 365.07,170.42 L 364.54,170.10 L 362.21,168.73 L 360.81,167.96 L 357.86,166.38 L 356.25,165.56 L 353.64,164.20 L 351.75,163.18 L 350.75,162.62 L 346.60,160.28 L 344.47,159.01 L 340.18,156.45 L 338.17,155.20 L 334.27,152.73 L 332.64,151.63 L 326.41,147.20 L 322.74,144.31 L 321.13,142.87 L 318.03,139.98 L 316.67,138.49 L 314.07,135.49 L 312.93,133.91 L 310.76,130.69 L 309.80,128.97 L 307.98,125.44 L 307.17,123.53 L 305.62,119.58 L 304.93,117.42 L 303.58,112.96 L 302.96,110.50 L 301.22,104.56 L 299.84,100.70 L 299.05,98.82 L 297.39,95.10 L 296.46,93.29 L 294.53,89.73 L 293.47,88.02 L 291.29,84.64 L 290.11,83.03 L 287.69,79.86 L 286.39,78.35 L 283.74,75.40 L 282.33,74.01 L 279.46,71.30 L 277.95,70.04 L 272.42,65.88 L 268.46,63.39 L 266.17,62.19 L 263.81,60.98 L 262.52,60.38 L 259.86,59.16 L 258.39,58.52 L 255.35,57.25 L 253.67,56.57 L 250.20,55.21 L 248.27,54.48 L 243.59,52.59 L 240.57,51.29 L 239.23,50.66 L 236.69,49.43 L 235.70,48.90 L 234.77,48.39 L 234.39,48.16 L 233.71,47.73 L 233.47,47.55 L 232.62,46.82 L 231.92,46.17 L 231.52,45.76 L 229.76,43.96 L 228.74,42.84 L 226.61,40.49 L 225.50,39.19 L 223.25,36.55 L 222.17,35.21 L 218.96,31.35 L 216.91,28.99 L 215.91,27.90 L 211.93,23.75 L 209.89,21.90 L 206.35,18.83 M 38.15,413.83 L 40.42,417.30 L 42.66,420.61 L 41.38,418.77 L 38.02,413.73 L 35.08,408.72 M 28.04,396.00 L 33.55,406.10 L 31.97,403.41 L 29.06,398.21 L 27.10,394.15 M 23.97,387.68 L 23.95,387.65 L 23.66,387.01 M 22.68,384.87 L 21.52,382.35 L 21.42,382.08 M 94.64,44.31 L 94.59,47.80 L 94.63,49.76 L 94.75,53.80 L 94.88,55.94 L 95.17,60.30 L 95.36,62.53 L 95.79,66.98 L 96.05,69.17 L 96.60,73.49 L 96.92,75.52 L 97.57,79.48 L 97.92,81.25 L 98.65,84.62 L 99.04,86.00 L 100.25,89.77 L 101.23,92.42 L 101.80,93.78 L 104.28,99.32 L 105.72,102.06 L 108.72,107.47 L 110.31,109.91 L 111.90,112.29 L 112.70,113.38 L 114.30,115.48 L 115.08,116.40 L 116.99,118.69 L 118.10,120.08 L 118.54,120.66 L 119.34,121.74 L 119.58,122.12 L 119.96,122.74 L 119.95,122.83 L 119.50,123.37 L 118.79,123.95 L 118.29,124.33 L 117.18,125.14 L 116.51,125.59 L 115.12,126.52 L 114.35,127.00 L 111.38,129.07 L 109.34,130.68 L 108.31,131.59 L 104.16,135.46 L 102.11,137.70 L 98.07,142.36 L 96.19,144.87 L 92.56,149.98 L 90.99,152.60 L 88.18,156.93 L 86.10,159.81 L 84.98,161.23 L 80.30,166.80 L 77.78,169.33 L 75.24,171.81 L 73.96,172.96 L 71.40,175.18 L 70.12,176.18 L 67.59,178.09 L 66.36,178.90 L 63.92,180.43 L 62.75,181.02 L 60.13,182.44 L 58.60,183.35 L 57.99,183.74 L 56.88,184.49 L 56.54,184.77 L 56.00,185.27 L 56.00,185.39 L 56.38,185.68 L 57.01,185.80 L 57.51,185.83 L 58.63,185.87 L 59.37,185.85 L 60.98,185.80 L 61.96,185.74 L 64.05,185.60 L 65.27,185.50 L 67.83,185.28 L 69.29,185.13 L 72.31,184.82 L 74.00,184.64 L 77.48,184.24 L 79.39,184.01 L 82.87,183.63 L 84.94,183.43 L 85.78,183.37 L 87.31,183.27 L 87.80,183.26 L 88.60,183.27 L 88.65,183.32 L 88.22,183.74 L 87.40,184.28 L 86.77,184.64 L 85.38,185.41 L 84.53,185.86 L 82.73,186.79 L 81.73,187.29 L 74.46,191.38 L 69.57,194.64 L 67.07,196.56 L 62.02,200.61 L 59.40,202.97 L 54.08,207.89 L 51.28,210.71 L 45.44,216.92 L 41.83,221.12 L 40.15,223.27 L 36.86,227.61 L 35.34,229.85 L 32.35,234.40 L 30.96,236.77 L 28.23,241.57 L 26.96,244.10 L 24.46,249.23 L 23.29,251.93 L 20.98,257.45 L 19.88,260.37 L 17.73,266.33 L 16.70,269.50 L 14.25,277.19 L 12.89,281.69 L 12.34,283.71 L 11.30,287.62 L 10.90,289.44 L 10.15,293.03 L 9.86,294.80 L 9.35,298.34 L 9.17,300.19 L 8.86,303.94 L 8.76,306.00 L 8.60,310.24 L 8.56,312.63 L 8.51,317.63 L 8.51,320.50 L 8.51,323.92 L 8.52,326.01 L 8.52,326.96 L 8.55,330.55 L 8.58,332.05 L 8.65,334.90 L 8.72,336.12 L 8.86,338.46 L 8.97,339.52 L 9.50,343.54 L 9.96,345.69 L 10.46,347.90 L 10.76,349.15 L 11.09,350.47 L 10.92,349.85 L 10.25,347.58 L 9.93,346.54 L 9.41,345.06 L 9.30,344.75 L 9.12,344.32 L 8.92,344.00 L 8.80,343.92 L 8.46,343.06 L 8.27,342.53 L 7.81,340.88 L 7.57,339.97 L 7.01,337.66 L 6.73,336.44 L 6.12,333.60 L 5.81,332.13 L 5.16,328.91 L 4.84,327.26 L 4.19,323.77 L 2.36,313.00 L 2.02,310.80 L 1.50,306.28 L 1.39,305.11 L 1.19,302.63 L 1.10,301.36 L 0.95,298.62 L 0.88,297.21 L 0.78,294.13 L 0.73,292.54 L 0.66,289.03 L 0.63,287.21 L 0.60,283.19 L 0.58,276.50 L 0.58,273.00 L 0.65,266.72 L 0.71,263.68 L 0.90,258.15 L 1.02,255.46 L 1.37,250.44 L 1.57,247.98 L 2.10,243.24 L 2.39,240.88 L 3.13,236.18 L 3.53,233.82 L 4.51,228.92 L 5.04,226.42 L 6.29,221.09 L 8.50,212.34 L 9.34,209.14 L 11.21,202.78 L 12.18,199.61 L 14.31,193.34 L 16.49,187.09 L 21.60,174.87 L 24.27,168.81 L 30.32,157.02 L 33.46,151.19 L 40.40,139.89 L 43.98,134.31 L 51.79,123.58 L 55.80,118.29 L 64.42,108.18 L 68.83,103.21 L 78.22,93.78 L 80.62,91.47 L 85.55,87.00 L 93.15,80.50 L 96.79,77.50 L 95.38,63.00 L 95.25,61.67 L 95.03,59.22 L 94.93,58.02 L 94.77,55.81 L 94.63,53.65 L 94.50,49.92 L 94.47,48.12 L 94.56,44.88 L 94.81,41.92 M 97.69,28.91 L 97.71,28.86 L 97.71,28.85 M 97.89,28.41 L 98.01,28.11 L 98.02,28.08 M 191.88,8.75 L 195.09,10.77 L 196.70,11.81 L 199.92,14.02 L 201.52,15.13 L 204.57,17.41 L 204.99,17.74 L 203.42,16.56 L 201.06,14.82 L 199.79,13.94 L 197.19,12.16 L 195.78,11.24 L 192.32,9.04 L 190.88,8.15 M 177.77,2.26 L 177.72,2.28 L 177.77,2.26 M 407.80,483.93 L 400.59,488.90 L 410.26,482.10 M 99.98,24.88 L 99.65,25.29 L 99.00,26.21 L 98.68,26.79 L 98.26,27.61 L 98.65,26.84 L 98.97,26.25 L 99.63,25.31 L 99.96,24.89 L 100.62,24.34 L 101.59,24.00 L 100.64,24.33 Z" fill="rgba(51,51,51,1)"/>
<path d="M 366.57,249.74 L 370.32,249.81 L 372.13,249.85 L 375.35,249.97 L 376.90,250.04 L 379.60,250.21 L 380.89,250.30 L 383.09,250.52 L 384.13,250.64 L 385.83,250.92 L 386.62,251.06 L 387.84,251.39 L 388.38,251.56 L 389.12,251.95 L 389.70,252.59 L 389.75,252.74 L 389.37,253.13 L 389.12,253.34 L 388.23,253.82 L 387.73,254.07 L 386.45,254.57 L 384.21,255.28 L 383.47,255.49 L 381.86,256.13 L 381.03,256.48 L 379.33,257.35 L 377.62,258.27 L 374.44,260.43 L 373.70,260.97 L 372.42,262.03 L 371.83,262.55 L 370.93,263.50 L 370.54,263.95 L 370.13,264.71 L 370.21,265.52 L 370.31,265.62 L 371.12,265.68 L 371.61,265.68 L 373.08,265.56 L 373.87,265.48 L 375.79,265.20 L 378.98,264.62 L 380.23,264.37 L 383.17,263.96 L 384.69,263.77 L 388.05,263.47 L 391.48,263.21 L 398.92,263.05 L 400.77,263.05 L 404.41,263.12 L 406.21,263.18 L 409.62,263.38 L 411.28,263.49 L 414.29,263.82 L 418.19,264.45 L 420.77,265.00 L 425.73,266.44 L 428.18,267.21 L 432.86,269.12 L 435.17,270.13 L 439.61,272.51 L 441.79,273.77 L 445.99,276.65 L 448.06,278.15 L 452.04,281.54 L 454.01,283.30 L 457.80,287.21 L 459.67,289.23 L 463.29,293.68 L 468.53,300.97 L 469.93,303.08 L 472.41,307.09 L 473.60,309.07 L 475.67,312.88 L 476.66,314.77 L 478.35,318.48 L 479.15,320.33 L 480.49,324.02 L 481.12,325.88 L 482.15,329.66 L 482.63,331.57 L 483.37,335.53 L 483.71,337.54 L 484.21,341.77 L 484.70,348.52 L 484.82,351.16 L 484.77,356.69 L 484.70,359.48 L 484.27,365.21 L 484.00,368.10 L 483.20,373.95 L 482.76,376.88 L 481.61,382.77 L 481.00,385.71 L 479.52,391.53 L 478.74,394.43 L 476.96,400.10 L 476.03,402.90 L 473.96,408.33 L 470.54,416.10 L 469.89,417.45 L 468.34,420.28 L 467.52,421.72 L 465.67,424.70 L 464.70,426.21 L 462.57,429.32 L 461.47,430.88 L 459.08,434.08 L 456.63,437.30 L 451.09,443.92 L 448.22,447.24 L 441.98,453.90 L 438.80,457.21 L 432.08,463.70 L 428.68,466.91 L 421.68,473.02 L 418.16,476.00 L 411.08,481.52 L 400.59,488.90 L 398.79,490.07 L 395.75,491.92 L 394.33,492.76 L 392.04,493.96 L 390.99,494.48 L 389.46,495.04 L 388.79,495.24 L 388.03,495.16 L 387.74,495.05 L 387.77,494.34 L 387.88,493.91 L 388.69,492.57 L 389.20,491.83 L 390.82,489.87 L 394.17,486.25 L 395.30,485.09 L 397.28,482.97 L 398.23,481.94 L 399.90,480.05 L 400.70,479.12 L 402.10,477.38 L 402.77,476.52 L 403.94,474.87 L 405.05,473.24 L 406.79,469.98 L 408.97,464.59 L 409.60,462.77 L 410.40,459.31 L 410.73,457.61 L 410.96,454.42 L 411.00,452.87 L 410.65,449.98 L 410.40,448.58 L 409.49,446.02 L 408.97,444.79 L 407.50,442.59 L 406.71,441.54 L 404.71,439.72 L 403.64,438.87 L 401.12,437.47 L 396.75,435.86 L 395.92,435.63 L 394.32,435.38 L 393.53,435.29 L 391.96,435.35 L 391.16,435.42 L 389.51,435.83 L 388.66,436.09 L 386.81,436.91 L 385.85,437.37 L 383.71,438.65 L 382.60,439.36 L 380.07,441.14 L 378.74,442.11 L 375.71,444.45 L 370.50,448.65 L 368.43,450.35 L 364.49,453.54 L 362.55,455.11 L 358.84,458.03 L 357.02,459.46 L 353.56,462.14 L 351.85,463.44 L 348.61,465.86 L 347.02,467.05 L 343.99,469.23 L 342.50,470.29 L 339.68,472.24 L 338.29,473.18 L 335.66,474.90 L 331.93,477.24 L 329.49,478.71 L 324.21,481.66 L 321.51,483.13 L 315.82,486.04 L 312.94,487.48 L 306.98,490.29 L 303.98,491.68 L 297.90,494.32 L 294.85,495.61 L 288.78,498.03 L 285.76,499.21 L 279.85,501.35 L 276.92,502.37 L 271.30,504.17 L 263.36,506.41 L 260.52,507.13 L 254.54,508.36 L 251.51,508.94 L 245.22,509.89 L 242.03,510.33 L 235.44,510.99 L 232.12,511.28 L 225.29,511.65 L 221.85,511.80 L 214.82,511.88 L 211.29,511.89 L 204.10,511.68 L 200.49,511.54 L 193.19,511.03 L 189.52,510.75 L 182.15,509.95 L 178.83,509.55 L 172.56,508.69 L 169.48,508.24 L 163.67,507.27 L 160.81,506.76 L 155.41,505.66 L 152.76,505.10 L 147.74,503.86 L 145.27,503.23 L 140.59,501.85 L 138.29,501.14 L 133.91,499.61 L 131.75,498.83 L 127.63,497.13 L 121.69,494.39 L 120.31,493.70 L 117.82,492.43 L 116.62,491.80 L 114.39,490.57 L 112.20,489.33 L 107.99,486.58 L 106.90,485.84 L 104.59,484.16 L 103.40,483.28 L 100.77,481.26 L 99.40,480.20 L 96.31,477.73 L 91.00,473.42 L 87.73,470.75 L 81.39,465.15 L 78.26,462.31 L 72.21,456.39 L 71.59,455.77 L 71.57,455.64 L 71.28,455.07 L 71.04,454.66 L 70.49,453.75 L 70.13,453.20 L 69.38,452.05 L 68.95,451.42 L 67.29,448.83 L 66.17,446.91 L 65.61,445.87 L 63.39,441.53 L 62.36,439.21 L 60.36,434.50 L 59.52,432.17 L 57.96,427.58 L 57.42,425.50 L 56.99,423.51 L 56.73,421.97 L 56.62,421.11 L 56.19,417.40 L 56.04,415.26 L 55.76,410.80 L 55.68,408.38 L 55.55,403.45 L 55.55,400.91 L 55.57,395.78 L 55.64,393.25 L 55.82,388.23 L 55.96,385.85 L 56.29,381.20 L 56.51,379.12 L 56.99,375.13 L 57.29,373.48 L 60.31,360.81 L 63.02,352.45 L 64.69,348.40 L 68.21,340.41 L 70.24,336.65 L 72.31,332.94 L 73.41,331.16 L 75.63,327.66 L 76.80,326.00 L 80.73,320.84 L 83.68,317.34 L 85.30,315.58 L 88.61,312.06 L 90.38,310.33 L 93.97,306.87 L 95.84,305.20 L 99.63,301.89 L 101.56,300.31 L 105.46,297.22 L 107.42,295.78 L 111.34,292.97 L 113.27,291.71 L 117.13,289.28 L 119.00,288.22 L 126.50,284.36 L 131.79,281.96 L 134.54,280.85 L 140.10,278.71 L 142.94,277.75 L 148.65,275.90 L 151.52,275.09 L 157.26,273.57 L 160.11,272.94 L 165.77,271.78 L 168.52,271.34 L 173.98,270.57 L 176.59,270.35 L 181.72,270.00 L 184.12,270.00 L 187.25,270.09 L 189.63,270.23 L 190.92,270.33 L 196.26,270.84 L 198.98,271.18 L 204.34,271.93 L 206.65,272.34 L 208.86,272.76 L 209.81,272.97 L 211.58,273.39 L 212.25,273.60 L 213.23,274.06 L 213.67,274.46 L 213.80,274.71 L 213.98,275.23 L 213.97,275.52 L 213.89,276.14 L 213.75,276.49 L 212.95,277.94 L 212.17,278.77 L 210.38,280.49 L 209.13,281.41 L 205.81,284.17 L 203.77,286.21 L 202.84,287.31 L 201.05,289.56 L 200.25,290.76 L 198.73,293.21 L 198.08,294.48 L 196.84,297.08 L 196.33,298.42 L 195.40,301.12 L 195.06,302.50 L 194.45,305.29 L 194.27,306.70 L 194.00,309.52 L 194.00,310.94 L 194.18,314.43 L 194.49,316.37 L 194.75,317.14 L 195.36,318.57 L 195.80,319.09 L 196.76,320.03 L 197.39,320.33 L 198.74,320.80 L 199.59,320.87 L 201.39,320.90 L 202.47,320.76 L 204.76,320.37 L 206.11,320.03 L 208.93,319.24 L 210.57,318.71 L 218.28,315.69 L 223.22,313.21 L 225.75,311.62 L 228.31,309.97 L 229.64,309.04 L 232.34,307.10 L 233.76,306.01 L 236.65,303.75 L 238.19,302.49 L 241.35,299.87 L 243.04,298.40 L 253.96,289.26 L 257.44,286.43 L 258.93,285.25 L 260.38,284.11 L 261.01,283.62 L 262.22,282.69 L 262.71,282.33 L 265.00,280.61 L 266.26,279.63 L 266.78,279.19 L 268.58,277.57 L 269.20,276.78 L 270.26,275.15 L 270.69,274.12 L 271.12,273.03 L 271.33,272.39 L 271.56,271.71 L 271.34,272.50 L 270.91,273.95 L 270.46,275.32 L 270.33,275.65 L 270.49,275.94 L 270.65,276.02 L 271.46,275.77 L 271.95,275.58 L 273.46,274.77 L 276.62,272.91 L 278.92,271.49 L 283.94,268.75 L 286.51,267.40 L 291.94,264.84 L 294.69,263.59 L 300.37,261.28 L 309.00,258.19 L 311.56,257.36 L 316.35,255.91 L 318.70,255.22 L 323.18,254.03 L 325.40,253.47 L 329.71,252.54 L 331.85,252.10 L 336.12,251.40 L 338.26,251.07 L 342.60,250.57 L 344.80,250.35 L 349.37,250.04 L 351.69,249.91 L 356.60,249.77 L 364.50,249.73 M 43.74,422.20 L 46.77,426.49 L 48.38,428.64 L 51.67,432.97 L 53.41,435.17 L 56.98,439.59 L 58.87,441.85 L 61.91,445.42 L 60.65,444.03 L 55.25,437.55 L 52.59,434.29 L 47.55,427.58 L 45.08,424.20 L 43.58,421.98 M 39.23,415.48 L 38.15,413.83 L 36.70,411.41 M 33.91,406.76 L 28.04,396.00 L 34.85,408.33 M 274.82,250.62 L 274.88,251.68 L 274.92,253.50 L 274.94,254.37 L 274.89,255.92 L 274.83,257.42 L 274.41,260.20 L 274.27,260.92 L 273.93,262.49 L 273.79,263.06 L 274.45,258.90 L 274.62,256.45 L 274.83,251.41 L 274.78,249.98 M 272.02,225.56 L 272.08,225.87 L 271.94,225.24 M 267.71,214.79 L 269.58,218.39 L 270.44,220.24 L 271.25,222.88 L 270.24,219.81 L 269.41,218.06 L 267.62,214.66 M 248.56,117.21 L 249.18,117.51 L 249.37,117.70 L 250.67,118.22 L 252.04,118.44 L 252.79,118.45 L 254.14,118.57 L 254.74,118.75 L 254.92,118.92 L 255.20,119.32 L 255.23,119.62 L 255.25,120.29 L 255.19,120.75 L 255.18,121.85 L 255.35,122.46 L 255.53,122.72 L 255.95,123.20 L 256.27,123.41 L 256.99,123.81 L 257.46,123.99 L 259.45,125.10 L 260.45,126.01 L 260.60,126.40 L 261.05,127.01 L 261.53,127.30 L 261.86,127.40 L 262.58,127.55 L 263.02,127.57 L 263.97,127.57 L 264.53,127.52 L 267.03,127.63 L 268.59,128.02 L 269.25,128.34 L 270.48,129.04 L 270.89,129.48 L 271.57,130.41 L 271.62,130.92 L 271.88,133.06 L 272.26,133.63 L 272.72,133.67 L 273.00,133.50 L 273.71,133.52 L 274.00,134.01 L 274.00,134.44 L 273.93,135.25 L 273.80,135.50 L 273.47,135.90 L 273.23,135.94 L 272.70,135.91 L 272.37,135.73 L 271.67,135.27 L 271.27,134.87 L 270.34,134.35 L 269.30,133.95 L 268.62,133.75 L 265.56,132.93 L 263.82,132.62 L 261.00,132.02 L 259.55,131.62 L 259.03,131.41 L 258.13,130.97 L 257.88,130.75 L 257.50,130.28 L 257.50,130.03 L 257.24,129.39 L 256.84,128.94 L 256.55,128.73 L 255.14,127.90 L 254.25,127.64 L 251.89,126.52 L 251.38,126.06 L 251.23,125.81 L 251.00,125.32 L 251.00,125.08 L 250.54,123.27 L 249.87,121.83 L 249.44,121.22 L 248.58,119.65 L 248.49,119.28 L 248.50,119.17 L 248.58,118.99 L 248.69,118.98 L 248.82,118.69 L 248.41,118.27 L 248.00,118.00 L 247.26,117.31 L 247.29,117.02 L 247.58,117.02 Z" fill="rgba(93,93,93,1)"/>
<path d="M 243.40,107.55 L 244.40,108.41 L 245.08,109.04 L 246.55,110.42 L 247.41,111.25 L 249.20,112.99 L 250.15,113.95 L 255.96,119.14 L 260.32,122.49 L 262.62,124.04 L 267.28,127.04 L 269.60,128.32 L 274.21,130.71 L 276.37,131.60 L 279.64,133.28 L 280.40,133.82 L 280.63,134.06 L 281.00,134.50 L 281.00,134.66 L 280.91,134.96 L 280.74,135.08 L 280.33,135.31 L 280.00,135.40 L 279.29,135.55 L 278.83,135.60 L 277.84,135.68 L 277.26,135.69 L 274.69,135.66 L 273.73,135.58 L 273.80,135.50 L 273.93,135.25 L 274.00,134.44 L 274.00,134.01 L 273.71,133.52 L 273.00,133.50 L 272.72,133.67 L 272.26,133.63 L 271.88,133.06 L 271.62,130.92 L 271.57,130.41 L 270.89,129.48 L 270.48,129.04 L 269.25,128.34 L 268.59,128.02 L 267.03,127.63 L 264.53,127.52 L 263.97,127.57 L 263.02,127.57 L 262.58,127.55 L 261.86,127.40 L 261.53,127.30 L 261.05,127.01 L 260.60,126.40 L 260.45,126.01 L 259.45,125.10 L 257.46,123.99 L 256.99,123.81 L 256.27,123.41 L 255.95,123.20 L 255.53,122.72 L 255.35,122.46 L 255.18,121.85 L 255.19,120.75 L 255.25,120.29 L 255.23,119.62 L 255.20,119.32 L 254.92,118.92 L 254.74,118.75 L 254.14,118.57 L 252.79,118.45 L 252.04,118.44 L 250.67,118.22 L 249.37,117.70 L 249.18,117.51 L 248.56,117.21 L 247.58,117.02 L 247.29,117.02 L 247.26,117.31 L 248.00,118.00 L 248.41,118.27 L 248.82,118.69 L 248.69,118.98 L 248.58,118.99 L 248.50,119.17 L 248.49,119.28 L 248.58,119.65 L 249.44,121.22 L 249.87,121.83 L 250.54,123.27 L 251.00,125.08 L 251.00,125.32 L 251.23,125.81 L 251.38,126.06 L 251.89,126.52 L 254.25,127.64 L 255.14,127.90 L 256.55,128.73 L 256.84,128.94 L 257.24,129.39 L 257.50,130.03 L 257.50,130.28 L 257.88,130.75 L 258.13,130.97 L 259.03,131.41 L 259.55,131.62 L 261.00,132.02 L 263.82,132.62 L 265.56,132.93 L 268.62,133.75 L 269.30,133.95 L 270.34,134.35 L 271.27,134.87 L 271.67,135.27 L 271.88,135.41 L 269.79,135.20 L 267.93,134.91 L 264.26,134.10 L 261.87,133.31 L 260.71,132.81 L 258.42,131.73 L 257.32,131.08 L 255.17,129.74 L 254.17,128.98 L 252.20,127.39 L 251.29,126.52 L 249.55,124.74 L 248.77,123.77 L 247.28,121.81 L 246.64,120.77 L 245.45,118.65 L 244.98,117.55 L 243.68,114.03 L 242.98,111.65 L 242.75,110.61 L 242.37,108.66 L 242.34,108.02 L 242.34,107.45 L 242.39,107.27 L 242.51,107.00 L 242.63,107.00 Z" fill="rgba(111,111,111,1)"/>
<path d="M 206.00,198.57 L 212.05,198.59 L 215.42,198.63 L 216.87,198.67 L 219.62,198.76 L 220.86,198.84 L 223.27,199.03 L 224.43,199.16 L 226.76,199.46 L 227.98,199.67 L 230.49,200.12 L 231.91,200.41 L 234.87,201.05 L 236.61,201.44 L 240.30,202.29 L 242.50,202.80 L 248.11,204.09 L 251.30,204.79 L 252.68,205.08 L 255.33,205.61 L 256.51,205.82 L 258.80,206.20 L 259.88,206.34 L 264.08,206.78 L 266.39,206.87 L 268.77,206.95 L 270.10,206.97 L 272.89,206.99 L 274.50,206.99 L 282.87,206.80 L 288.32,206.48 L 291.00,206.22 L 296.33,205.64 L 298.97,205.25 L 303.02,204.58 L 299.38,205.20 L 296.79,205.60 L 291.58,206.20 L 288.97,206.47 L 283.72,206.80 L 275.75,207.00 L 274.00,207.00 L 270.80,207.03 L 269.28,207.05 L 266.75,207.12 L 265.59,207.15 L 264.01,207.24 L 263.68,207.27 L 263.26,207.32 L 263.00,207.40 L 263.00,207.45 L 263.27,207.96 L 263.45,208.27 L 264.02,209.20 L 264.34,209.71 L 265.13,210.93 L 266.48,212.98 L 267.62,214.66 L 269.41,218.06 L 270.24,219.81 L 271.52,223.71 L 271.82,224.73 L 272.34,226.96 L 272.59,228.10 L 273.03,230.61 L 273.24,231.91 L 273.62,234.77 L 274.14,239.50 L 274.30,241.15 L 274.53,244.25 L 274.63,245.76 L 274.74,248.61 L 274.83,251.41 L 274.62,256.45 L 274.45,258.90 L 273.72,263.49 L 272.03,270.24 L 271.78,271.04 L 271.33,272.39 L 271.12,273.03 L 270.69,274.12 L 270.26,275.15 L 269.20,276.78 L 268.58,277.57 L 266.78,279.19 L 266.26,279.63 L 265.00,280.61 L 262.71,282.33 L 262.22,282.69 L 261.01,283.62 L 260.38,284.11 L 258.93,285.25 L 257.44,286.43 L 253.96,289.26 L 243.04,298.40 L 241.35,299.87 L 238.19,302.49 L 236.65,303.75 L 233.76,306.01 L 232.34,307.10 L 229.64,309.04 L 228.31,309.97 L 225.75,311.62 L 223.22,313.21 L 218.28,315.69 L 210.57,318.71 L 208.93,319.24 L 206.11,320.03 L 204.76,320.37 L 202.47,320.76 L 201.39,320.90 L 199.59,320.87 L 198.74,320.80 L 197.39,320.33 L 196.76,320.03 L 195.80,319.09 L 195.36,318.57 L 194.75,317.14 L 194.49,316.37 L 194.18,314.43 L 194.00,310.94 L 194.00,309.52 L 194.27,306.70 L 194.45,305.29 L 195.06,302.50 L 195.40,301.12 L 196.33,298.42 L 196.84,297.08 L 198.08,294.48 L 198.73,293.21 L 200.25,290.76 L 201.05,289.56 L 202.84,287.31 L 203.77,286.21 L 205.81,284.17 L 209.13,281.41 L 210.38,280.49 L 212.17,278.77 L 212.95,277.94 L 213.75,276.49 L 213.89,276.14 L 213.97,275.52 L 213.98,275.23 L 213.80,274.71 L 213.67,274.46 L 213.23,274.06 L 212.25,273.60 L 211.58,273.39 L 209.81,272.97 L 208.86,272.76 L 206.65,272.34 L 204.34,271.93 L 198.98,271.18 L 196.26,270.84 L 190.92,270.33 L 189.63,270.23 L 187.25,270.09 L 184.12,270.00 L 181.72,270.00 L 176.59,270.35 L 173.98,270.57 L 168.52,271.34 L 165.77,271.78 L 160.11,272.94 L 157.26,273.57 L 151.52,275.09 L 148.65,275.90 L 142.94,277.75 L 140.10,278.71 L 134.54,280.85 L 131.79,281.96 L 126.50,284.36 L 119.00,288.22 L 117.13,289.28 L 113.27,291.71 L 111.34,292.97 L 107.42,295.78 L 105.46,297.22 L 101.56,300.31 L 99.63,301.89 L 95.84,305.20 L 93.97,306.87 L 90.38,310.33 L 88.61,312.06 L 85.30,315.58 L 83.68,317.34 L 80.73,320.84 L 76.80,326.00 L 75.63,327.66 L 73.41,331.16 L 72.31,332.94 L 70.24,336.65 L 68.21,340.41 L 64.69,348.40 L 63.02,352.45 L 60.31,360.81 L 57.29,373.48 L 56.99,375.13 L 56.51,379.12 L 56.29,381.20 L 55.96,385.85 L 55.82,388.23 L 55.64,393.25 L 55.57,395.78 L 55.55,400.91 L 55.55,403.45 L 55.68,408.38 L 55.76,410.80 L 56.04,415.26 L 56.19,417.40 L 56.62,421.11 L 56.73,421.97 L 56.99,423.51 L 57.42,425.50 L 57.96,427.58 L 59.52,432.17 L 60.36,434.50 L 62.36,439.21 L 63.39,441.53 L 65.61,445.87 L 66.17,446.91 L 67.29,448.83 L 68.95,451.42 L 69.38,452.05 L 70.13,453.20 L 70.49,453.75 L 71.04,454.66 L 71.28,455.07 L 71.57,455.64 L 71.64,456.00 L 71.57,456.00 L 70.96,455.43 L 70.58,455.06 L 69.44,453.87 L 68.82,453.21 L 67.32,451.57 L 66.53,450.70 L 64.80,448.75 L 62.74,446.41 L 58.87,441.85 L 56.98,439.59 L 53.41,435.17 L 52.86,434.47 L 53.33,435.00 L 53.38,435.00 L 53.22,434.43 L 52.82,433.53 L 52.51,432.87 L 51.80,431.43 L 51.36,430.57 L 50.42,428.75 L 49.88,427.75 L 46.73,421.12 L 44.85,416.38 L 44.02,413.86 L 42.42,408.74 L 41.74,406.04 L 40.45,400.57 L 39.92,397.71 L 38.93,391.93 L 38.55,388.94 L 37.88,382.89 L 37.67,379.77 L 37.32,373.49 L 37.26,370.27 L 37.24,363.80 L 37.36,360.50 L 37.65,354.21 L 37.93,350.24 L 38.10,348.34 L 38.92,340.98 L 39.53,337.46 L 40.88,330.47 L 41.79,326.92 L 42.75,323.34 L 43.29,321.50 L 44.42,317.77 L 45.05,315.82 L 49.28,304.53 L 52.63,297.01 L 54.55,293.29 L 58.53,285.90 L 60.73,282.28 L 65.27,275.11 L 67.73,271.64 L 72.76,264.79 L 75.44,261.52 L 80.89,255.09 L 83.75,252.08 L 89.55,246.17 L 92.55,243.45 L 98.62,238.18 L 101.74,235.81 L 110.17,229.64 L 115.59,225.93 L 118.26,224.26 L 123.58,221.02 L 126.25,219.55 L 131.61,216.70 L 134.36,215.40 L 139.91,212.88 L 142.81,211.72 L 148.70,209.45 L 151.83,208.38 L 158.22,206.30 L 161.65,205.30 L 168.69,203.32 L 172.50,202.35 L 177.43,201.10 L 180.20,200.43 L 181.41,200.16 L 183.72,199.67 L 184.79,199.48 L 186.89,199.15 L 187.96,199.03 L 190.11,198.82 L 191.29,198.75 L 193.73,198.64 L 195.15,198.61 L 198.15,198.57 L 199.93,198.56 L 203.72,198.56 M 16.73,369.72 L 17.90,372.92 L 20.32,379.30 L 21.64,382.44 L 23.11,385.81 L 22.82,385.19 L 21.26,381.74 L 18.58,375.01 L 17.30,371.63 L 15.02,364.66 L 11.83,353.34 L 14.63,363.22 M 304.55,204.32 L 304.39,204.35 L 305.96,204.03 M 335.73,195.00 L 338.38,193.89 L 335.73,195.00 M 63.92,180.43 L 62.85,180.97 L 63.92,180.43 M 80.28,166.81 L 79.45,167.65 L 80.29,166.81 M 90.96,152.65 L 88.16,156.96 L 86.08,159.83 L 84.96,161.25 L 81.51,165.36 L 84.98,161.23 L 86.10,159.81 L 88.18,156.93 L 90.98,152.61 M 91.93,151.03 L 92.56,149.98 L 93.06,149.27 M 114.92,126.67 L 111.89,128.88 L 110.50,129.98 L 107.80,132.16 L 106.56,133.26 L 104.49,135.15 L 108.31,131.59 L 109.34,130.68 L 111.38,129.07 L 114.35,127.00 L 115.12,126.52 L 116.51,125.59 L 116.84,125.36 M 119.92,122.92 L 119.99,123.22 L 119.93,123.26 L 117.20,125.12 L 118.29,124.33 L 118.79,123.95 L 119.50,123.37 L 119.91,122.88 M 178.50,2.25 L 178.87,2.29 L 179.84,2.55 L 180.36,2.71 L 181.60,3.20 L 182.26,3.47 L 183.76,4.18 L 184.54,4.56 L 186.28,5.49 L 187.18,5.98 L 189.14,7.11 L 190.15,7.71 L 192.32,9.04 L 195.78,11.24 L 197.19,12.16 L 199.79,13.94 L 201.06,14.82 L 203.42,16.56 L 205.73,18.30 L 209.89,21.90 L 211.93,23.75 L 215.91,27.90 L 216.91,28.99 L 218.96,31.35 L 222.17,35.21 L 223.25,36.55 L 225.50,39.19 L 226.61,40.49 L 228.74,42.84 L 229.76,43.96 L 231.52,45.76 L 231.92,46.17 L 232.62,46.82 L 233.47,47.55 L 233.71,47.73 L 234.39,48.16 L 234.77,48.39 L 235.70,48.90 L 236.69,49.43 L 239.23,50.66 L 240.57,51.29 L 243.59,52.59 L 248.27,54.48 L 250.20,55.21 L 253.67,56.57 L 255.35,57.25 L 256.20,57.60 L 249.79,55.06 L 246.38,53.86 L 239.60,51.54 L 236.49,50.62 L 233.46,49.74 L 232.07,49.39 L 229.40,48.73 L 228.25,48.50 L 221.03,47.31 L 215.96,46.70 L 213.34,46.48 L 208.04,46.11 L 205.34,46.01 L 199.92,45.88 L 197.20,45.90 L 191.77,46.01 L 189.09,46.15 L 183.75,46.50 L 181.15,46.76 L 176.02,47.34 L 173.57,47.72 L 168.75,48.54 L 166.50,49.04 L 160.29,50.19 L 156.33,50.69 L 154.40,50.81 L 150.58,50.94 L 148.68,50.86 L 144.90,50.61 L 142.99,50.34 L 139.15,49.69 L 137.18,49.22 L 133.19,48.16 L 131.10,47.47 L 126.86,45.99 L 124.61,45.08 L 120.02,43.16 L 117.57,42.03 L 114.08,40.47 L 111.96,39.55 L 111.08,39.18 L 109.44,38.52 L 108.87,38.32 L 107.93,38.00 L 107.79,38.00 L 107.41,38.28 L 107.27,38.74 L 107.25,39.07 L 107.30,40.66 L 107.49,41.71 L 107.97,43.93 L 108.35,45.08 L 109.17,47.36 L 109.67,48.33 L 110.27,49.32 L 110.95,50.35 L 111.41,51.03 L 112.41,52.49 L 113.02,53.36 L 114.31,55.20 L 115.04,56.23 L 116.56,58.37 L 117.39,59.53 L 119.11,61.92 L 120.02,63.18 L 123.82,68.40 L 125.84,71.14 L 131.64,79.03 L 133.43,81.46 L 134.26,82.59 L 135.87,84.79 L 136.60,85.78 L 137.99,87.69 L 138.59,88.51 L 139.73,90.06 L 140.18,90.69 L 141.01,91.83 L 141.30,92.22 L 141.78,92.89 L 141.87,93.03 L 142.54,94.12 L 142.65,94.58 L 142.50,94.71 L 142.05,94.91 L 141.57,94.95 L 140.44,95.00 L 139.57,95.00 L 136.14,95.43 L 133.84,96.07 L 133.06,96.47 L 131.23,97.75 L 129.67,99.09 L 128.78,99.93 L 126.95,101.71 L 125.98,102.70 L 124.05,104.73 L 123.10,105.78 L 121.24,107.87 L 120.39,108.87 L 118.78,110.82 L 118.13,111.68 L 116.95,113.30 L 116.58,113.92 L 116.00,115.01 L 116.00,115.29 L 116.17,116.22 L 116.44,116.99 L 116.64,117.42 L 117.58,119.22 L 118.18,120.03 L 119.00,121.29 L 118.54,120.66 L 118.10,120.08 L 116.99,118.69 L 115.08,116.40 L 114.30,115.48 L 112.70,113.38 L 111.90,112.29 L 110.31,109.91 L 108.72,107.47 L 105.72,102.06 L 104.28,99.32 L 101.80,93.78 L 101.23,92.42 L 100.25,89.77 L 99.04,86.00 L 98.65,84.62 L 97.92,81.25 L 97.57,79.48 L 96.92,75.52 L 96.60,73.49 L 96.05,69.17 L 95.79,66.98 L 95.36,62.53 L 95.17,60.30 L 94.88,55.94 L 94.75,53.80 L 94.63,49.76 L 94.59,47.80 L 94.64,44.31 L 94.95,39.95 L 95.21,37.82 L 96.09,33.85 L 96.57,31.96 L 97.74,28.77 L 98.04,28.04 L 98.68,26.79 L 99.00,26.21 L 99.65,25.29 L 99.98,24.88 L 100.64,24.33 L 101.59,24.00 L 101.80,24.00 L 102.68,24.35 L 103.18,24.57 L 104.50,25.29 L 105.20,25.68 L 106.80,26.68 L 109.32,28.38 L 111.38,29.84 L 115.61,32.48 L 117.76,33.76 L 122.25,36.07 L 124.54,37.20 L 129.40,39.25 L 137.25,42.08 L 138.37,42.45 L 140.22,43.04 L 141.08,43.32 L 142.52,43.75 L 143.20,43.94 L 144.32,44.21 L 144.86,44.33 L 145.78,44.45 L 146.66,44.53 L 148.25,44.30 L 151.18,43.44 L 152.86,42.88 L 156.57,41.07 L 158.44,40.08 L 162.11,37.69 L 163.90,36.45 L 167.00,33.85 L 167.71,33.20 L 168.94,31.93 L 170.42,30.11 L 171.35,28.78 L 172.87,25.82 L 173.57,24.29 L 174.64,20.95 L 175.13,19.24 L 175.75,15.56 L 176.16,9.67 L 176.18,8.48 L 176.28,6.56 L 176.34,5.68 L 176.55,4.34 L 176.66,3.75 L 176.98,2.95 L 177.60,2.32 L 177.82,2.24 M 299.05,98.82 L 299.84,100.70 L 300.45,102.41 L 298.92,98.54 M 296.46,93.29 L 297.39,95.10 L 297.91,96.28 L 297.33,95.08 L 295.17,90.91 M 291.29,84.64 L 293.47,88.02 L 294.53,89.73 L 294.73,90.09 L 293.42,87.99 L 290.65,83.76 M 286.39,78.35 L 287.69,79.86 L 290.11,83.03 L 290.13,83.05 L 288.86,81.41 L 286.06,77.97 M 282.33,74.01 L 283.74,75.40 L 284.63,76.39 L 283.69,75.41 L 281.14,72.88 M 279.46,71.30 L 279.49,71.32 L 278.98,70.89 M 301.22,104.56 L 302.96,110.50 L 300.58,102.76 Z" fill="rgba(203,203,203,1)"/>
<path d="M 47.41,427.42 L 45.30,424.56 L 41.31,418.77 L 39.35,415.85 L 35.68,409.95 L 33.89,406.98 L 30.53,400.95 L 28.89,397.93 L 25.85,391.79 L 24.37,388.70 L 21.64,382.44 L 20.32,379.30 L 17.90,372.92 L 16.73,369.72 L 14.63,363.22 L 11.83,353.34 L 11.43,351.79 L 10.76,349.15 L 10.46,347.90 L 9.96,345.69 L 9.50,343.54 L 8.97,339.52 L 8.86,338.46 L 8.72,336.12 L 8.65,334.90 L 8.58,332.05 L 8.55,330.55 L 8.52,326.96 L 8.52,326.01 L 8.51,323.92 L 8.51,320.50 L 8.51,317.63 L 8.56,312.63 L 8.60,310.24 L 8.76,306.00 L 8.86,303.94 L 9.17,300.19 L 9.35,298.34 L 9.86,294.80 L 10.15,293.03 L 10.90,289.44 L 11.30,287.62 L 12.34,283.71 L 12.89,281.69 L 14.25,277.19 L 16.70,269.50 L 17.73,266.33 L 19.88,260.37 L 20.98,257.45 L 23.29,251.93 L 24.46,249.23 L 26.96,244.10 L 28.23,241.57 L 30.96,236.77 L 32.35,234.40 L 35.34,229.85 L 36.86,227.61 L 40.15,223.27 L 41.83,221.12 L 45.44,216.92 L 51.28,210.71 L 54.08,207.89 L 59.40,202.97 L 62.02,200.61 L 67.07,196.56 L 69.57,194.64 L 74.46,191.38 L 81.73,187.29 L 82.73,186.79 L 84.53,185.86 L 85.38,185.41 L 86.77,184.64 L 87.40,184.28 L 88.22,183.74 L 88.65,183.32 L 88.60,183.27 L 87.80,183.26 L 87.31,183.27 L 85.78,183.37 L 84.94,183.43 L 82.87,183.63 L 79.39,184.01 L 77.48,184.24 L 74.00,184.64 L 72.31,184.82 L 69.29,185.13 L 67.83,185.28 L 65.27,185.50 L 64.05,185.60 L 61.96,185.74 L 60.98,185.80 L 59.37,185.85 L 58.63,185.87 L 57.51,185.83 L 57.01,185.80 L 56.38,185.68 L 56.00,185.39 L 56.00,185.27 L 56.54,184.77 L 56.88,184.49 L 57.99,183.74 L 58.60,183.35 L 60.13,182.44 L 62.75,181.02 L 63.92,180.43 L 66.35,178.90 L 67.58,178.09 L 70.12,176.18 L 71.39,175.19 L 73.95,172.97 L 75.23,171.82 L 77.77,169.34 L 80.28,166.81 L 84.96,161.25 L 86.08,159.83 L 88.16,156.96 L 90.96,152.65 L 91.92,151.04 L 93.84,148.07 L 94.80,146.62 L 96.75,143.93 L 98.71,141.30 L 103.01,136.62 L 104.14,135.48 L 106.56,133.26 L 107.80,132.16 L 110.50,129.98 L 111.89,128.88 L 114.92,126.67 L 119.93,123.26 L 119.99,123.22 L 119.92,122.92 L 119.86,122.73 L 119.59,122.19 L 118.18,120.03 L 117.58,119.22 L 116.64,117.42 L 116.44,116.99 L 116.17,116.22 L 116.00,115.29 L 116.00,115.01 L 116.58,113.92 L 116.95,113.30 L 118.13,111.68 L 118.78,110.82 L 120.39,108.87 L 121.24,107.87 L 123.10,105.78 L 124.05,104.73 L 125.98,102.70 L 126.95,101.71 L 128.78,99.93 L 129.67,99.09 L 131.23,97.75 L 133.06,96.47 L 133.84,96.07 L 136.14,95.43 L 139.57,95.00 L 140.44,95.00 L 141.57,94.95 L 142.05,94.91 L 142.50,94.71 L 142.65,94.58 L 142.54,94.12 L 141.87,93.03 L 141.78,92.89 L 141.30,92.22 L 141.01,91.83 L 140.18,90.69 L 139.73,90.06 L 138.59,88.51 L 137.99,87.69 L 136.60,85.78 L 135.87,84.79 L 134.26,82.59 L 133.43,81.46 L 131.64,79.03 L 125.84,71.14 L 123.82,68.40 L 120.02,63.18 L 119.11,61.92 L 117.39,59.53 L 116.56,58.37 L 115.04,56.23 L 114.31,55.20 L 113.02,53.36 L 112.41,52.49 L 111.41,51.03 L 110.95,50.35 L 110.27,49.32 L 109.67,48.33 L 109.17,47.36 L 108.35,45.08 L 107.97,43.93 L 107.49,41.71 L 107.30,40.66 L 107.25,39.07 L 107.27,38.74 L 107.41,38.28 L 107.79,38.00 L 107.93,38.00 L 108.87,38.32 L 109.44,38.52 L 111.08,39.18 L 111.96,39.55 L 114.08,40.47 L 117.57,42.03 L 120.02,43.16 L 124.61,45.08 L 126.86,45.99 L 131.10,47.47 L 133.19,48.16 L 137.18,49.22 L 139.15,49.69 L 142.99,50.34 L 144.90,50.61 L 148.68,50.86 L 150.58,50.94 L 154.40,50.81 L 156.33,50.69 L 160.29,50.19 L 166.50,49.04 L 168.75,48.54 L 173.57,47.72 L 176.02,47.34 L 181.15,46.76 L 183.75,46.50 L 189.09,46.15 L 191.77,46.01 L 197.20,45.90 L 199.92,45.88 L 205.34,46.01 L 208.04,46.11 L 213.34,46.48 L 215.96,46.70 L 221.03,47.31 L 228.25,48.50 L 229.40,48.73 L 232.07,49.39 L 233.46,49.74 L 236.49,50.62 L 239.60,51.54 L 246.38,53.86 L 249.79,55.06 L 256.43,57.70 L 258.04,58.36 L 261.05,59.68 L 265.16,61.61 L 267.43,62.75 L 271.79,65.44 L 273.93,66.85 L 277.99,70.06 L 279.97,71.73 L 283.69,75.41 L 285.51,77.30 L 288.86,81.41 L 290.48,83.51 L 293.42,87.99 L 294.84,90.27 L 297.33,95.08 L 298.52,97.52 L 300.53,102.60 L 302.96,110.50 L 303.58,112.96 L 304.93,117.42 L 305.62,119.58 L 307.17,123.53 L 307.98,125.44 L 309.80,128.97 L 310.76,130.69 L 312.93,133.91 L 314.07,135.49 L 316.67,138.49 L 318.03,139.98 L 321.13,142.87 L 322.74,144.31 L 326.41,147.20 L 332.64,151.63 L 334.27,152.73 L 338.17,155.20 L 340.18,156.45 L 344.47,159.01 L 346.60,160.28 L 350.75,162.62 L 351.75,163.18 L 353.64,164.20 L 356.25,165.56 L 357.86,166.38 L 360.81,167.96 L 362.21,168.73 L 364.54,170.10 L 365.07,170.42 L 365.98,171.00 L 366.40,171.28 L 367.07,171.75 L 367.37,171.97 L 367.75,172.32 L 368.00,172.67 L 368.00,172.93 L 367.77,173.58 L 367.62,173.93 L 367.12,174.74 L 366.55,175.58 L 364.70,177.62 L 363.67,178.68 L 361.09,180.97 L 356.63,184.43 L 356.21,184.73 L 355.15,185.41 L 354.59,185.76 L 353.30,186.53 L 351.95,187.31 L 348.74,189.01 L 347.09,189.87 L 343.57,191.57 L 338.38,193.89 L 335.67,195.03 L 330.35,197.06 L 327.69,198.04 L 322.45,199.77 L 319.83,200.60 L 314.63,202.03 L 312.03,202.71 L 306.82,203.85 L 304.21,204.39 L 298.97,205.25 L 296.33,205.64 L 291.00,206.22 L 288.32,206.48 L 282.87,206.80 L 274.50,206.99 L 272.89,206.99 L 270.10,206.97 L 268.77,206.95 L 266.39,206.87 L 264.08,206.78 L 259.88,206.34 L 258.80,206.20 L 256.51,205.82 L 255.33,205.61 L 252.68,205.08 L 251.30,204.79 L 248.11,204.09 L 242.50,202.80 L 240.30,202.29 L 236.61,201.44 L 234.87,201.05 L 231.91,200.41 L 230.49,200.12 L 227.98,199.67 L 226.76,199.46 L 224.43,199.16 L 223.27,199.03 L 220.86,198.84 L 219.62,198.76 L 216.87,198.67 L 215.42,198.63 L 212.05,198.59 L 206.00,198.57 L 203.72,198.56 L 199.93,198.56 L 198.15,198.57 L 195.15,198.61 L 193.73,198.64 L 191.29,198.75 L 190.11,198.82 L 187.96,199.03 L 186.89,199.15 L 184.79,199.48 L 183.72,199.67 L 181.41,200.16 L 180.20,200.43 L 177.43,201.10 L 172.50,202.35 L 168.69,203.32 L 161.65,205.30 L 158.22,206.30 L 151.83,208.38 L 148.70,209.45 L 142.81,211.72 L 139.91,212.88 L 134.36,215.40 L 131.61,216.70 L 126.25,219.55 L 123.58,221.02 L 118.26,224.26 L 115.59,225.93 L 110.17,229.64 L 101.74,235.81 L 98.62,238.18 L 92.55,243.45 L 89.55,246.17 L 83.75,252.08 L 80.89,255.09 L 75.44,261.52 L 72.76,264.79 L 67.73,271.64 L 65.27,275.11 L 60.73,282.28 L 58.53,285.90 L 54.55,293.29 L 52.63,297.01 L 49.28,304.53 L 45.05,315.82 L 44.42,317.77 L 43.29,321.50 L 42.75,323.34 L 41.79,326.92 L 40.88,330.47 L 39.53,337.46 L 38.92,340.98 L 38.10,348.34 L 37.93,350.24 L 37.65,354.21 L 37.36,360.50 L 37.24,363.80 L 37.26,370.27 L 37.32,373.49 L 37.67,379.77 L 37.88,382.89 L 38.55,388.94 L 38.93,391.93 L 39.92,397.71 L 40.45,400.57 L 41.74,406.04 L 42.42,408.74 L 44.02,413.86 L 44.85,416.38 L 46.73,421.12 L 49.88,427.75 L 50.42,428.75 L 51.36,430.57 L 51.80,431.43 L 52.51,432.87 L 52.82,433.53 L 53.22,434.43 L 53.38,435.00 L 53.33,435.00 L 52.80,434.40 L 52.47,434.02 L 51.48,432.77 L 50.93,432.09 L 49.61,430.36 L 48.92,429.46 M 281.00,134.66 L 281.00,134.50 L 280.63,134.06 L 280.40,133.82 L 279.64,133.28 L 276.37,131.60 L 274.21,130.71 L 269.60,128.32 L 267.28,127.04 L 262.62,124.04 L 260.32,122.49 L 255.96,119.14 L 250.15,113.95 L 249.20,112.99 L 247.41,111.25 L 246.55,110.42 L 245.08,109.04 L 244.40,108.41 L 243.40,107.55 L 242.63,107.00 L 242.51,107.00 L 242.39,107.27 L 242.34,107.45 L 242.34,108.02 L 242.37,108.66 L 242.75,110.61 L 242.98,111.65 L 243.68,114.03 L 244.98,117.55 L 245.45,118.65 L 246.64,120.77 L 247.28,121.81 L 248.77,123.77 L 249.55,124.74 L 251.29,126.52 L 252.20,127.39 L 254.17,128.98 L 255.17,129.74 L 257.32,131.08 L 258.42,131.73 L 260.71,132.81 L 261.87,133.31 L 264.26,134.10 L 267.93,134.91 L 269.79,135.20 L 273.12,135.53 L 274.69,135.66 L 277.26,135.69 L 277.84,135.68 L 278.83,135.60 L 279.29,135.55 L 280.00,135.40 L 280.33,135.31 L 280.74,135.08 L 280.91,134.96 Z" fill="rgba(254,254,254,1)"/>
</g>
</svg>