<svg width="439" height="282" viewBox="0 0 439 282" fill="none" xmlns="http://www.w3.org/2000/svg">
  <style>
    path { fill: #101010; }

    @media (prefers-color-scheme: dark) {
      path { fill: #fff; }
    }
  </style>

  <path d="M0.528 173.72C0.528 152.163 4.53867 133.237 12.56 116.944C20.832 100.651 31.9867 88.1173 46.024 79.344C60.0613 70.5707 75.728 66.184 93.024 66.184C106.811 66.184 119.344 69.0667 130.624 74.832C142.155 80.5973 151.179 88.368 157.696 98.144V0.759996H221.992V279H157.696V248.92C151.68 258.947 143.032 266.968 131.752 272.984C120.723 279 107.813 282.008 93.024 282.008C75.728 282.008 60.0613 277.621 46.024 268.848C31.9867 259.824 20.832 247.165 12.56 230.872C4.53867 214.328 0.528 195.277 0.528 173.72ZM157.696 174.096C157.696 158.053 153.184 145.395 144.16 136.12C135.387 126.845 124.608 122.208 111.824 122.208C99.04 122.208 88.136 126.845 79.112 136.12C70.3387 145.144 65.952 157.677 65.952 173.72C65.952 189.763 70.3387 202.547 79.112 212.072C88.136 221.347 99.04 225.984 111.824 225.984C124.608 225.984 135.387 221.347 144.16 212.072C153.184 202.797 157.696 190.139 157.696 174.096ZM353.859 282.008C335.561 282.008 319.267 278.875 304.979 272.608C290.691 266.341 279.411 257.819 271.139 247.04C262.867 236.011 258.23 223.728 257.227 210.192H320.771C321.523 217.461 324.907 223.352 330.923 227.864C336.939 232.376 344.334 234.632 353.107 234.632C361.129 234.632 367.27 233.128 371.531 230.12C376.043 226.861 378.299 222.725 378.299 217.712C378.299 211.696 375.166 207.309 368.899 204.552C362.633 201.544 352.481 198.285 338.443 194.776C323.403 191.267 310.87 187.632 300.843 183.872C290.817 179.861 282.169 173.72 274.899 165.448C267.63 156.925 263.995 145.52 263.995 131.232C263.995 119.2 267.254 108.296 273.771 98.52C280.539 88.4933 290.315 80.5973 303.099 74.832C316.134 69.0667 331.55 66.184 349.347 66.184C375.667 66.184 396.347 72.7013 411.387 85.736C426.678 98.7707 435.451 116.067 437.707 137.624H378.299C377.297 130.355 374.038 124.589 368.523 120.328C363.259 116.067 356.241 113.936 347.467 113.936C339.947 113.936 334.182 115.44 330.171 118.448C326.161 121.205 324.155 125.091 324.155 130.104C324.155 136.12 327.289 140.632 333.555 143.64C340.073 146.648 350.099 149.656 363.635 152.664C379.177 156.675 391.835 160.685 401.611 164.696C411.387 168.456 419.91 174.723 427.179 183.496C434.699 192.019 438.585 203.549 438.835 218.088C438.835 230.371 435.326 241.4 428.307 251.176C421.539 260.701 411.638 268.221 398.603 273.736C385.819 279.251 370.905 282.008 353.859 282.008Z"/>
</svg>
